<?xml version="1.0" encoding="iso-8859-1"?>
<!-- Generator: Adobe Illustrator 21.0.0, SVG Export Plug-In . SVG Version: 6.00 Build 0)  -->
<svg xmlns="http://www.w3.org/2000/svg" xmlns:xlink="http://www.w3.org/1999/xlink" version="1.1" id="Capa_1" x="0px" y="0px" viewBox="0 0 512 512" style="enable-background:new 0 0 512 512;" xml:space="preserve" width="512" height="512">
<g>
	<path d="M337.761,172.241c20.006,0,39.024,4.306,56.181,12.034l-76.65-76.651l-252.01,252.01l87.36,87.36l67.267-67.267   c-12.304-20.563-19.387-44.592-19.387-70.248C200.522,233.806,262.087,172.241,337.761,172.241z"/>
	<rect x="376.824" y="55.49" transform="matrix(0.7071 -0.7071 0.7071 0.7071 32.7799 313.662)" width="36.381" height="123.545"/>
	<polygon points="0,511.752 127.971,464.686 47.56,384.275  "/>
	<path d="M493.937,18.341C482.27,6.673,466.757,0.248,450.257,0.248s-32.014,6.425-43.68,18.093l-21.198,21.198l87.359,87.36   l21.199-21.199C518.021,81.615,518.021,42.426,493.937,18.341z"/>
	<path d="M337.761,201.197c-59.707,0-108.283,48.575-108.283,108.283c0,59.707,48.576,108.282,108.283,108.282   s108.282-48.575,108.282-108.282C446.043,249.773,397.467,201.197,337.761,201.197z M378.469,324.457h-25.731v25.732h-29.954   v-25.732h-25.732v-29.954h25.732v-25.732h29.954v25.732h25.731V324.457z"/>
</g>















</svg>
